<svg xmlns="http://www.w3.org/2000/svg" xmlns:xlink="http://www.w3.org/1999/xlink" width="1080" zoomAndPan="magnify" viewBox="0 0 810 809.999993" height="1080" preserveAspectRatio="xMidYMid meet" version="1.0"><defs><g/><clipPath id="1e1a6b792c"><rect x="0" width="800" y="0" height="800"/></clipPath></defs><g transform="matrix(1, 0, 0, 1, 4, 4)"><g clip-path="url(#1e1a6b792c)"><g fill="#fc9816" fill-opacity="1"><g transform="translate(398.685808, 704.501105)"><g><path d="M -32.375 52.25 C -35.539062 51.945312 -38.382812 50.867188 -40.90625 49.015625 C -43.425781 47.171875 -45.347656 44.835938 -46.671875 42.015625 C -48.003906 39.191406 -48.519531 36.195312 -48.21875 33.03125 C -47.90625 29.851562 -46.820312 27.003906 -44.96875 24.484375 C -43.125 21.972656 -40.789062 20.050781 -37.96875 18.71875 C -35.144531 17.382812 -32.148438 16.867188 -28.984375 17.171875 C -25.804688 17.484375 -22.957031 18.5625 -20.4375 20.40625 C -17.925781 22.257812 -16.003906 24.597656 -14.671875 27.421875 C -13.335938 30.242188 -12.828125 33.242188 -13.140625 36.421875 C -13.441406 39.585938 -14.519531 42.425781 -16.375 44.9375 C -18.226562 47.457031 -20.5625 49.382812 -23.375 50.71875 C -26.195312 52.050781 -29.195312 52.5625 -32.375 52.25 Z M -32.375 52.25 "/></g></g></g><g fill="#fc9816" fill-opacity="1"><g transform="translate(318.882326, 694.625026)"><g><path d="M -75.203125 49.421875 C -79.484375 47.609375 -82.875 45.007812 -85.375 41.625 C -87.875 38.238281 -89.332031 34.429688 -89.75 30.203125 C -90.164062 25.984375 -89.46875 21.738281 -87.65625 17.46875 L -87.109375 16.171875 C -85.304688 11.890625 -82.734375 8.40625 -79.390625 5.71875 C -76.054688 3.039062 -72.304688 1.421875 -68.140625 0.859375 C -63.972656 0.304688 -59.75 0.9375 -55.46875 2.75 L -38.953125 9.734375 L -29.546875 -12.5 L -7.40625 -3.140625 L -36.546875 65.765625 Z M -45.765625 25.84375 L -54.875 22 C -57.21875 21.007812 -59.222656 20.867188 -60.890625 21.578125 C -62.566406 22.296875 -63.84375 23.691406 -64.71875 25.765625 L -65.0625 26.546875 C -65.957031 28.691406 -66.070312 30.59375 -65.40625 32.25 C -64.738281 33.90625 -63.234375 35.226562 -60.890625 36.21875 L -51.78125 40.0625 Z M -45.765625 25.84375 "/></g></g></g><g fill="#fc9816" fill-opacity="1"><g transform="translate(225.51293, 650.094785)"><g><path d="M -55.921875 50.34375 L -73.8125 34.3125 L -36.65625 -7.15625 L -65.234375 -32.765625 L -52.46875 -47.015625 L -6 -5.375 Z M -55.921875 50.34375 "/></g></g></g><g fill="#fc9816" fill-opacity="1"><g transform="translate(155.151705, 582.740183)"><g><path d="M -27.9375 -51.03125 L -35.671875 -43.1875 L -23.078125 -20.203125 L -12.3125 -22.5 L -0.53125 -0.953125 L -79.25 11.03125 L -92.671875 -13.484375 L -40.140625 -73.34375 Z M -40.171875 -16.546875 L -47.953125 -30.765625 L -67.5625 -11.09375 L -67.359375 -10.71875 Z M -40.171875 -16.546875 "/></g></g></g><g fill="#fc9816" fill-opacity="1"><g transform="translate(106.767326, 485.292867)"><g><path d="M -7.796875 -53.90625 L -4.359375 -30.140625 L -33.09375 -25.984375 L -74.15625 9.96875 L -78.109375 -17.359375 L -55.515625 -35.15625 L -55.578125 -35.578125 L -82.28125 -46.203125 L -86.03125 -72.140625 L -36.53125 -49.75 Z M -7.796875 -53.90625 "/></g></g></g><g fill="#fc9816" fill-opacity="1"><g transform="translate(95.935737, 376.846449)"><g><path d="M -44.140625 -61.359375 L 10.375 -50.046875 L 5.5 -26.515625 L -49.015625 -37.828125 L -54.015625 -13.765625 L -72.75 -17.640625 L -57.90625 -89.1875 L -39.171875 -85.3125 Z M -44.140625 -61.359375 "/></g></g></g><g fill="#fc9816" fill-opacity="1"><g transform="translate(123.35411, 275.847636)"><g><path d="M 4.296875 -8.0625 L -61.703125 -43.296875 L -50.390625 -64.484375 L 15.609375 -29.25 Z M 4.296875 -8.0625 "/></g></g></g><g fill="#fc9816" fill-opacity="1"><g transform="translate(154.894882, 215.302431)"><g><path d="M 52.453125 -49.765625 L 33.890625 -69.328125 C 31.597656 -71.742188 29.332031 -74.3125 27.09375 -77.03125 C 24.851562 -79.757812 23.015625 -82.09375 21.578125 -84.03125 C 20.148438 -85.96875 19.238281 -87.203125 18.84375 -87.734375 L 18.53125 -87.421875 L 43.375 -41.15625 L 29.75 -28.21875 L -15.15625 -55.328125 L -15.46875 -55.03125 C -14.96875 -54.59375 -13.785156 -53.632812 -11.921875 -52.15625 C -10.066406 -50.675781 -7.820312 -48.757812 -5.1875 -46.40625 C -2.5625 -44.050781 -0.101562 -41.664062 2.1875 -39.25 L 20.75 -19.6875 L 4.734375 -4.5 L -46.75 -58.765625 L -22.140625 -82.109375 L 15.765625 -58.578125 L 16.078125 -58.875 L -5.5 -97.890625 L 18.25 -120.421875 L 69.734375 -66.15625 Z M 52.453125 -49.765625 "/></g></g></g><g fill="#fc9816" fill-opacity="1"><g transform="translate(250.782434, 133.543175)"><g><path d="M -20.59375 -72.375 L 39.390625 -96.640625 L 46.109375 -80 L 8.40625 -64.75 L 12.296875 -55.171875 L 44.5625 -68.21875 L 51 -52.296875 L 18.734375 -39.25 L 23.015625 -28.65625 L 61.421875 -44.1875 L 68.140625 -27.5625 L 7.453125 -3.015625 Z M -20.59375 -72.375 "/></g></g></g><g fill="#fc9816" fill-opacity="1"><g transform="translate(347.661739, 98.427765)"><g><path d="M 77.125 -54.6875 C 77.289062 -50.125 76.207031 -45.953125 73.875 -42.171875 C 71.550781 -38.390625 68.066406 -35.539062 63.421875 -33.625 L 81.171875 -2.9375 L 54.234375 -1.953125 L 39.984375 -28.765625 L 31.078125 -28.4375 L 32.0625 -1.15625 L 8.046875 -0.296875 L 5.34375 -75.0625 L 51.09375 -76.703125 C 56.445312 -76.898438 61.0625 -76.03125 64.9375 -74.09375 C 68.8125 -72.164062 71.773438 -69.484375 73.828125 -66.046875 C 75.878906 -62.609375 76.976562 -58.820312 77.125 -54.6875 Z M 52.703125 -52.828125 C 52.640625 -54.785156 51.929688 -56.390625 50.578125 -57.640625 C 49.234375 -58.898438 47.617188 -59.5 45.734375 -59.4375 L 29.984375 -58.859375 L 30.484375 -45.046875 L 46.234375 -45.625 C 48.117188 -45.6875 49.6875 -46.410156 50.9375 -47.796875 C 52.1875 -49.191406 52.773438 -50.867188 52.703125 -52.828125 Z M 52.703125 -52.828125 "/></g></g></g><g fill="#fc9816" fill-opacity="1"><g transform="translate(456.458714, 98.853764)"><g><path d="M 55.203125 18.359375 L 55.53125 7.359375 L 30.671875 -0.90625 L 24.34375 8.09375 L 1.03125 0.34375 L 50.53125 -62.03125 L 77.0625 -53.203125 L 79.328125 26.390625 Z M 40.6875 -15.234375 L 56.0625 -10.125 L 57.046875 -37.875 L 56.625 -38.015625 Z M 40.6875 -15.234375 "/></g></g></g><g fill="#fc9816" fill-opacity="1"><g transform="translate(558.241006, 137.291857)"><g><path d="M 22.09375 17.796875 L 48.375 -57.09375 L 68.359375 -40.984375 L 48.671875 7.359375 L 49.015625 7.640625 L 92.140625 -21.8125 L 111.28125 -6.40625 L 43.78125 35.265625 Z M 22.09375 17.796875 "/></g></g></g><g fill="#fc9816" fill-opacity="1"><g transform="translate(640.011679, 209.349724)"><g><path d="M 68.171875 -31.84375 L 101.671875 23.5 L 86.328125 32.78125 L 65.265625 -2.015625 L 56.421875 3.34375 L 74.4375 33.109375 L 59.734375 42 L 41.71875 12.234375 L 31.953125 18.15625 L 53.40625 53.59375 L 38.0625 62.875 L 4.171875 6.890625 Z M 68.171875 -31.84375 "/></g></g></g><g fill="#fc9816" fill-opacity="1"><g transform="translate(688.9433, 301.279793)"><g><path d="M 60.015625 13.265625 C 60.773438 16.359375 60.703125 19.394531 59.796875 22.375 C 58.890625 25.363281 57.320312 27.953125 55.09375 30.140625 C 52.875 32.328125 50.21875 33.800781 47.125 34.5625 C 44.03125 35.3125 40.988281 35.234375 38 34.328125 C 35.007812 33.421875 32.414062 31.851562 30.21875 29.625 C 28.03125 27.40625 26.554688 24.75 25.796875 21.65625 C 25.035156 18.5625 25.109375 15.519531 26.015625 12.53125 C 26.929688 9.539062 28.503906 6.945312 30.734375 4.75 C 32.960938 2.5625 35.625 1.09375 38.71875 0.34375 C 41.8125 -0.414062 44.847656 -0.34375 47.828125 0.5625 C 50.816406 1.476562 53.40625 3.050781 55.59375 5.28125 C 57.78125 7.507812 59.253906 10.171875 60.015625 13.265625 Z M 60.015625 13.265625 "/></g></g></g><g fill="#fc9816" fill-opacity="1"><g transform="translate(704.181645, 382.016136)"><g/></g></g><g fill="#fc9816" fill-opacity="1"><g transform="translate(702.938532, 445.450353)"><g><path d="M 63.421875 56.46875 C 61.859375 62.125 59.609375 66.785156 56.671875 70.453125 C 53.742188 74.117188 50.328125 76.632812 46.421875 78 C 42.523438 79.375 38.410156 79.46875 34.078125 78.28125 C 30.023438 77.164062 26.632812 75.140625 23.90625 72.203125 C 21.175781 69.265625 18.972656 65.910156 17.296875 62.140625 C 15.628906 58.378906 13.71875 53.304688 11.5625 46.921875 C 10.425781 43.390625 9.421875 40.488281 8.546875 38.21875 L -0.125 69.78125 L -17.84375 64.90625 L -1.40625 5.140625 L 3.625 6.53125 C 7.332031 7.539062 10.394531 9.300781 12.8125 11.8125 C 15.238281 14.320312 17.472656 17.625 19.515625 21.71875 C 21.523438 25.882812 24.179688 31.800781 27.484375 39.46875 C 30.085938 45.601562 32.15625 49.96875 33.6875 52.5625 C 35.226562 55.164062 37.015625 56.75 39.046875 57.3125 C 41.210938 57.90625 43.234375 57.648438 45.109375 56.546875 C 46.992188 55.453125 48.351562 53.40625 49.1875 50.40625 C 50.050781 47.25 49.820312 44.515625 48.5 42.203125 C 47.175781 39.890625 45.046875 38.332031 42.109375 37.53125 L 40.015625 36.953125 L 45.15625 18.28125 C 45.726562 18.363281 46.507812 18.539062 47.5 18.8125 C 55.039062 20.882812 60.269531 25.160156 63.1875 31.640625 C 66.101562 38.128906 66.179688 46.40625 63.421875 56.46875 Z M 63.421875 56.46875 "/></g></g></g><g fill="#fc9816" fill-opacity="1"><g transform="translate(673.09172, 538.58366)"><g><path d="M 43.046875 72.515625 C 36.554688 82.222656 29.234375 87.203125 21.078125 87.453125 C 12.929688 87.710938 3.644531 84.351562 -6.78125 77.375 C -17.195312 70.394531 -23.84375 63.085938 -26.71875 55.453125 C -29.59375 47.816406 -27.785156 39.144531 -21.296875 29.4375 C -14.765625 19.6875 -7.421875 14.679688 0.734375 14.421875 C 8.890625 14.171875 18.175781 17.535156 28.59375 24.515625 C 39.019531 31.492188 45.664062 38.800781 48.53125 46.4375 C 51.40625 54.070312 49.578125 62.765625 43.046875 72.515625 Z M 30.84375 64.34375 C 32.945312 61.207031 33.238281 58.171875 31.71875 55.234375 C 30.195312 52.296875 26.695312 48.992188 21.21875 45.328125 L 12.265625 39.34375 C 6.722656 35.632812 2.304688 33.632812 -0.984375 33.34375 C -4.285156 33.050781 -6.988281 34.472656 -9.09375 37.609375 C -11.1875 40.742188 -11.453125 43.75 -9.890625 46.625 C -8.328125 49.507812 -4.773438 52.804688 0.765625 56.515625 L 9.71875 62.5 C 15.25 66.207031 19.628906 68.222656 22.859375 68.546875 C 26.085938 68.878906 28.75 67.476562 30.84375 64.34375 Z M 30.84375 64.34375 "/></g></g></g><g fill="#fc9816" fill-opacity="1"><g transform="translate(615.340933, 617.510104)"><g><path d="M 16.890625 83.203125 C 12.253906 86.796875 7.660156 89.179688 3.109375 90.359375 C -1.441406 91.546875 -5.6875 91.515625 -9.625 90.265625 C -13.570312 89.023438 -16.921875 86.628906 -19.671875 83.078125 C -22.253906 79.753906 -23.753906 76.097656 -24.171875 72.109375 C -24.585938 68.128906 -24.335938 64.128906 -23.421875 60.109375 C -22.503906 56.097656 -20.992188 50.894531 -18.890625 44.5 C -17.671875 40.976562 -16.734375 38.050781 -16.078125 35.71875 L -41.953125 55.765625 L -53.203125 41.234375 L -4.21875 3.265625 L -1.015625 7.390625 C 1.335938 10.429688 2.734375 13.679688 3.171875 17.140625 C 3.609375 20.609375 3.414062 24.585938 2.59375 29.078125 C 1.695312 33.617188 0.273438 39.945312 -1.671875 48.0625 C -3.253906 54.53125 -4.210938 59.265625 -4.546875 62.265625 C -4.890625 65.273438 -4.414062 67.613281 -3.125 69.28125 C -1.75 71.0625 0.0195312 72.070312 2.1875 72.3125 C 4.351562 72.5625 6.664062 71.734375 9.125 69.828125 C 11.707031 67.828125 13.164062 65.503906 13.5 62.859375 C 13.832031 60.222656 13.066406 57.703125 11.203125 55.296875 L 9.875 53.578125 L 25.171875 41.71875 C 25.578125 42.113281 26.09375 42.71875 26.71875 43.53125 C 31.507812 49.707031 33.128906 56.265625 31.578125 63.203125 C 30.035156 70.140625 25.140625 76.804688 16.890625 83.203125 Z M 16.890625 83.203125 "/></g></g></g><g fill="#fc9816" fill-opacity="1"><g transform="translate(535.604909, 674.13918)"><g><path d="M -9.5625 84.03125 C -18.113281 87.03125 -25.679688 87.359375 -32.265625 85.015625 C -38.847656 82.679688 -43.472656 77.722656 -46.140625 70.140625 L -27.875 63.71875 L -27.625 64.4375 C -26.6875 67.101562 -25.085938 69.019531 -22.828125 70.1875 C -20.566406 71.363281 -17.867188 71.398438 -14.734375 70.296875 C -11.515625 69.160156 -9.390625 67.160156 -8.359375 64.296875 C -7.328125 61.429688 -7.472656 58.125 -8.796875 54.375 L -10.890625 48.421875 C -12.242188 50.898438 -14.132812 53.0625 -16.5625 54.90625 C -18.988281 56.757812 -21.429688 58.113281 -23.890625 58.96875 C -28.609375 60.625 -33.160156 61.285156 -37.546875 60.953125 C -41.929688 60.617188 -45.785156 59.207031 -49.109375 56.71875 C -52.441406 54.238281 -54.910156 50.707031 -56.515625 46.125 C -59.253906 38.320312 -58.695312 31.320312 -54.84375 25.125 C -51 18.9375 -44.457031 14.222656 -35.21875 10.984375 C -24.882812 7.347656 -16.210938 7.46875 -9.203125 11.34375 C -2.191406 15.226562 3.398438 23.117188 7.578125 35.015625 C 12.304688 48.492188 13.25 59.113281 10.40625 66.875 C 7.5625 74.632812 0.90625 80.351562 -9.5625 84.03125 Z M -23.375 44.984375 C -20.164062 43.859375 -17.992188 42.113281 -16.859375 39.75 C -15.734375 37.394531 -15.734375 34.609375 -16.859375 31.390625 C -17.992188 28.179688 -19.71875 26.003906 -22.03125 24.859375 C -24.351562 23.710938 -27.125 23.707031 -30.34375 24.84375 C -33.625 25.988281 -35.84375 27.703125 -37 29.984375 C -38.15625 32.273438 -38.171875 35.03125 -37.046875 38.25 C -35.921875 41.457031 -34.164062 43.660156 -31.78125 44.859375 C -29.394531 46.066406 -26.59375 46.109375 -23.375 44.984375 Z M -23.375 44.984375 "/></g></g></g><g fill="#fc9816" fill-opacity="1"><g transform="translate(440.08938, 701.29238)"><g/></g></g></g></g></svg>